<svg width="140" height="140" viewBox="0 0 140 140" fill="none" xmlns="http://www.w3.org/2000/svg">
<g clip-path="url(#clip0_89_856)">
<path d="M2.92864 134.289H2.89118C1.31427 134.289 0.0354004 135.567 0.0354004 137.144C0.0354004 138.722 1.31427 140 2.89118 140H2.92864C4.50555 140 5.78441 138.722 5.78441 137.144C5.78441 135.567 4.50555 134.289 2.92864 134.289Z" fill="black"/>
<path d="M137.11 134.289H137.072C135.495 134.289 134.216 135.567 134.216 137.144C134.216 138.722 135.495 140 137.072 140H137.11C138.686 140 139.965 138.722 139.965 137.144C139.965 135.567 138.686 134.289 137.11 134.289Z" fill="black"/>
<path d="M72.8031 71.4963H67.222C65.6451 71.4963 64.3662 72.7749 64.3662 74.3521C64.3662 77.4655 66.8993 79.9983 70.0124 79.9983C73.1258 79.9983 75.6583 77.4652 75.6586 74.3521C75.6589 72.7747 74.38 71.4963 72.8031 71.4963Z" fill="black"/>
<path d="M81.0917 122.009H81.0543C79.4774 122.009 78.1985 123.288 78.1985 124.865C78.1985 126.442 79.4774 127.721 81.0543 127.721H81.0917C82.6686 127.721 83.9475 126.442 83.9475 124.865C83.9475 123.288 82.6686 122.009 81.0917 122.009Z" fill="black"/>
<path d="M101.044 122.009H90.3304C88.7535 122.009 87.4746 123.288 87.4746 124.865C87.4746 126.442 88.7535 127.721 90.3304 127.721H101.044C102.621 127.721 103.9 126.442 103.9 124.865C103.9 123.288 102.621 122.009 101.044 122.009Z" fill="black"/>
<path d="M58.8774 122.009H58.8399C57.263 122.009 55.9841 123.288 55.9841 124.865C55.9841 126.442 57.263 127.721 58.8399 127.721H58.8774C60.4543 127.721 61.7331 126.442 61.7331 124.865C61.7331 123.288 60.4543 122.009 58.8774 122.009Z" fill="black"/>
<path d="M49.6006 122.009H38.8865C37.3096 122.009 36.0308 123.288 36.0308 124.865C36.0308 126.442 37.3096 127.721 38.8865 127.721H49.6006C51.1778 127.721 52.4564 126.442 52.4564 124.865C52.4564 123.288 51.1775 122.009 49.6006 122.009Z" fill="black"/>
<path d="M18.2332 59.6121C16.6563 59.6121 15.3774 60.8907 15.3774 62.4678V66.3258C15.3774 67.9029 16.6563 69.1815 18.2332 69.1815C19.8104 69.1815 21.089 67.9029 21.089 66.3258V62.4678C21.089 60.8907 19.8101 59.6121 18.2332 59.6121Z" fill="black"/>
<path d="M8.28782 68.8645L5.55864 66.1367C4.44329 65.0216 2.63478 65.0219 1.51998 66.1372C0.405176 67.2528 0.40545 69.0608 1.5208 70.1762L4.24997 72.904C4.80751 73.4615 5.53786 73.7401 6.26876 73.7401C6.99966 73.7401 7.73083 73.461 8.28864 72.9034C9.40344 71.7875 9.40317 69.9796 8.28782 68.8645Z" fill="black"/>
<path d="M35.1531 65.9304C34.0383 64.8156 32.2298 64.8154 31.1145 65.9304L28.3861 68.6585C27.2708 69.7736 27.2708 71.5816 28.3858 72.6972C28.9434 73.2547 29.674 73.5336 30.4052 73.5336C31.1361 73.5336 31.8667 73.255 32.4245 72.6972L35.1529 69.9691C36.2685 68.8538 36.2685 67.0458 35.1531 65.9304Z" fill="black"/>
<path d="M18.2196 71.1384C8.20001 71.1384 0.048584 79.2896 0.048584 89.3078C0.048584 95.269 3.12995 101.02 8.02474 104.419V107.342C8.02474 112.952 12.5999 117.516 18.2231 117.516C23.8464 117.516 28.4215 112.952 28.4215 107.342V104.447C33.31 101.044 36.3905 95.2777 36.3905 89.3078C36.3908 79.2893 28.2391 71.1384 18.2196 71.1384ZM22.7099 107.343C22.7099 109.803 20.6972 111.805 18.2231 111.805C15.7491 111.805 13.7363 109.803 13.7363 107.343V105.727H22.7099V107.343ZM16.6831 90.4554L18.0916 89.3157L19.7486 90.5237L18.2286 94.6469L16.6831 90.4554ZM24.7793 100.015H22.337L27.745 85.3465C28.2905 83.8666 27.5334 82.2247 26.0533 81.6792C24.5745 81.1336 22.9317 81.8911 22.3859 83.3706L21.8027 84.9527L19.6827 83.4075C18.6377 82.6457 17.21 82.6816 16.2041 83.4956L14.5965 84.7966L14.0726 83.375C13.5268 81.8949 11.8857 81.1377 10.405 81.6835C8.92517 82.2293 8.16802 83.871 8.71353 85.3509L14.1205 100.015H11.7126C8.0756 97.7173 5.76014 93.5898 5.76014 89.308C5.76014 82.4388 11.3492 76.85 18.2198 76.85C25.0905 76.85 30.6795 82.4385 30.6795 89.308C30.6793 93.5832 28.3849 97.7099 24.7793 100.015Z" fill="black"/>
<path d="M31.0952 19.8809C30.4564 18.6272 29.133 17.8788 27.5558 17.8788H22.4403L24.3224 4.08606C24.7082 1.25571 22.9101 0.376885 22.3495 0.175089C21.7895 -0.0267075 19.8438 -0.497019 18.3352 1.92973L4.85641 23.6029C4.04731 24.905 3.9661 26.4051 4.63876 27.6153C5.31196 28.8258 6.62883 29.5485 8.16254 29.5485H12.018L8.91668 43.2245C8.28066 46.0277 10.0082 47.0518 10.5527 47.2987C10.7752 47.3998 11.2259 47.5639 11.7962 47.5639C12.6209 47.5639 13.6964 47.2205 14.6958 45.8459L30.6352 23.9198C31.5619 22.6442 31.7339 21.1343 31.0952 19.8809ZM17.1463 32.763L18.3792 27.3252C18.5712 26.4781 18.3675 25.59 17.8258 24.9116C17.2839 24.2332 16.4627 23.8378 15.5943 23.8378H11.4367L17.1069 14.7197L16.3391 20.3487C16.2276 21.166 16.475 21.9913 17.017 22.6128C17.5592 23.234 18.3437 23.5906 19.1684 23.5906H23.8143L17.1463 32.763Z" fill="black"/>
<path d="M80.4143 58.041C78.6542 58.041 77.2222 59.473 77.2222 61.2331C77.2224 62.9932 78.6544 64.4249 80.4143 64.4249C82.1741 64.4249 83.6061 62.993 83.6061 61.2331C83.6061 59.4727 82.1741 58.041 80.4143 58.041Z" fill="black"/>
<path d="M59.5856 58.041C57.8258 58.041 56.3938 59.473 56.3938 61.2331C56.3938 62.993 57.8258 64.4249 59.5856 64.4249C61.3457 64.4249 62.7777 62.9932 62.7777 61.2331C62.7777 59.473 61.3455 58.041 59.5856 58.041Z" fill="black"/>
<path d="M127.833 134.289H111.989V114.98C111.989 109.413 108.63 104.126 103.82 102.122L85.4414 94.4643C84.7879 94.1923 84.3657 93.5587 84.3657 92.8505V88.4039L91.8305 84.1238C91.8825 84.0937 91.9336 84.0622 91.9837 84.0292C95.7213 81.5608 98.1754 77.1714 98.5486 72.287C98.5544 72.2148 98.5568 72.1418 98.5568 72.0693V69.6986C102.265 68.4925 104.953 65.0026 104.953 60.8969C104.953 56.7913 102.265 53.3017 98.5568 52.0953V49.7834H101.457C103.592 49.7834 105.33 48.0462 105.33 45.9107V40.2158C105.33 38.3622 104.021 36.8088 102.278 36.4309C101.248 29.263 97.8771 22.6311 92.6273 17.5372C88.8689 13.8904 84.3203 11.205 79.364 9.68903V7.66286C79.364 5.45732 77.6266 3.66357 75.491 3.66357H64.5082C62.3726 3.66357 60.6352 5.45787 60.6352 7.66286V9.52798C55.467 11.0097 50.7316 13.7507 46.8294 17.5369C41.5387 22.671 38.1557 29.3672 37.1549 36.5996C35.7027 37.1588 34.6699 38.5686 34.6699 40.2153V45.9101C34.6699 48.0457 36.4073 49.7828 38.5429 49.7828H41.4427V52.0947C37.7343 53.3009 35.0462 56.7907 35.0462 60.8964C35.0462 65.002 37.7343 68.4917 41.4427 69.6981V72.0688C41.4427 72.1412 41.4454 72.2142 41.4509 72.2864C41.8258 77.1908 44.2629 81.5803 47.9699 84.0286C48.021 84.0625 48.073 84.0945 48.1263 84.1249L55.6338 88.4167V92.85C55.6338 93.5579 55.2113 94.1912 54.5581 94.4638L36.1793 102.122C31.3695 104.126 28.0104 109.413 28.0104 114.979V134.288H12.1663C10.5894 134.288 9.31055 135.567 9.31055 137.144C9.31055 138.721 10.5894 140 12.1663 140H127.833C129.41 140 130.688 138.721 130.688 137.144C130.688 135.567 129.41 134.289 127.833 134.289ZM40.3815 44.0724V41.9871C41.5969 41.7175 42.5288 40.6724 42.6108 39.3813C43.0409 32.6501 45.9514 26.3482 50.8071 21.6369C54.4985 18.0551 59.0878 15.6065 64.0802 14.5546C65.4015 14.2762 66.347 13.1105 66.347 11.7603V9.3754H73.6525V11.8798C73.6525 13.2104 74.5712 14.3643 75.8676 14.6626C80.6664 15.7673 85.0865 18.1784 88.6499 21.6366C93.5056 26.3479 96.4161 32.6495 96.8462 39.381C96.9405 40.8584 98.1467 42.0139 99.618 42.0536V44.0721H40.3815V44.0724ZM51.0471 79.2164C48.8651 77.7387 47.4165 75.0366 47.1537 71.9545V67.2937C47.1537 65.7165 45.8748 64.4379 44.2979 64.4379C42.3456 64.4379 40.7572 62.8493 40.7572 60.8972C40.7572 58.9451 42.3458 57.3565 44.2979 57.3565C45.8748 57.3565 47.1537 56.0779 47.1537 54.5007V49.7839H92.845V54.5007C92.845 56.0779 94.1239 57.3565 95.7008 57.3565C97.6531 57.3565 99.2415 58.9451 99.2415 60.8972C99.2415 62.8493 97.6528 64.4379 95.7008 64.4379C94.1239 64.4379 92.845 65.7165 92.845 67.2937V71.9539C92.5858 74.9737 91.0841 77.7412 88.9039 79.2175L73.5721 88.0088C73.5201 88.0388 73.469 88.0703 73.4189 88.1034C71.2777 89.5173 68.7221 89.5173 66.5808 88.1034C66.5297 88.0697 66.4777 88.0375 66.4244 88.0071L51.0471 79.2164ZM67.1583 134.289H33.7216V114.98C33.7216 111.761 35.7226 108.5 38.3761 107.394L53.5335 101.078L57.8527 113.176C58.2022 114.155 59.0558 114.867 60.0815 115.034C60.2354 115.06 60.3894 115.072 60.5425 115.072C61.4093 115.072 62.2395 114.677 62.7861 113.983L67.1581 108.43L67.1583 134.289ZM58.7091 98.5889C60.4556 100.227 62.5274 101.457 64.7895 102.205L61.4944 106.39L58.7091 98.5889ZM61.3401 92.9897C61.341 92.9432 61.3453 92.8975 61.3453 92.8505V91.6821L63.5153 92.9227C65.5202 94.2245 67.7599 94.8753 70.0002 94.8753C72.241 94.8753 74.4815 94.224 76.4866 92.9213L78.6544 91.6783V92.8502C78.6544 92.9085 78.6596 92.9656 78.6607 93.0233C76.6124 95.7336 73.446 97.3297 70.0138 97.3297C66.5647 97.3299 63.3874 95.721 61.3401 92.9897ZM81.3191 98.5872L78.5333 106.39L75.2373 102.203C77.4994 101.456 79.5721 100.225 81.3191 98.5872ZM106.278 134.289H72.8693V108.429L77.2416 113.982C77.7882 114.677 78.6183 115.071 79.4851 115.071C79.638 115.071 79.7922 115.059 79.9462 115.034C80.9718 114.866 81.8255 114.155 82.1749 113.176L86.4906 101.088L101.624 107.394C104.277 108.499 106.278 111.761 106.278 114.979V134.289Z" fill="black"/>
<path d="M75.9223 27.5022C75.4572 26.488 74.4433 25.8381 73.3277 25.8381H72.8678L74.1261 24.2858C75.1193 23.0605 74.9309 21.2621 73.7059 20.2692C72.4811 19.2764 70.6819 19.4645 69.6893 20.6895L64.6589 26.8957C63.9655 27.7513 63.826 28.929 64.2996 29.9227C64.7732 30.9163 65.7765 31.5496 66.8773 31.5496H67.11L65.2493 33.7155C64.2214 34.9118 64.3587 36.7148 65.5544 37.7427C66.0936 38.2056 66.7554 38.4323 67.4141 38.4323C68.2177 38.4323 69.0167 38.0949 69.5819 37.4373L75.4941 30.5548C76.2207 29.7086 76.388 28.5164 75.9223 27.5022Z" fill="black"/>
<path d="M131.154 52.0587H127.699V33.063L132.953 28.0525C133.726 27.3165 134.023 26.2112 133.724 25.1869L130.583 14.4067C130.228 13.188 129.111 12.3496 127.841 12.3496H121.844C120.575 12.3496 119.458 13.1877 119.103 14.4067L115.961 25.1869C115.663 26.2109 115.96 27.3165 116.733 28.0525L121.987 33.063V52.0587H118.532C116.955 52.0587 115.677 53.3373 115.677 54.9144V80.6312C115.677 85.6851 119.788 89.7971 124.842 89.7971C129.897 89.7971 134.008 85.6854 134.008 80.6312V54.9144C134.009 53.3373 132.731 52.0587 131.154 52.0587ZM121.931 25.1175L123.987 18.0614H125.699L127.756 25.1175L124.843 27.8945L121.931 25.1175ZM124.843 84.0858C122.939 84.0858 121.389 82.536 121.389 80.6312V57.7702H128.298V80.6312C128.298 82.536 126.748 84.0858 124.843 84.0858Z" fill="black"/>
</g>
<defs>
<clipPath id="clip0_89_856">
<rect width="140" height="140" fill="white"/>
</clipPath>
</defs>
</svg>
