<svg width="140" height="140" viewBox="0 0 140 140" fill="none" xmlns="http://www.w3.org/2000/svg">
<g clip-path="url(#clip0_89_923)">
<path d="M106.918 70.4348C101.471 70.4348 96.3595 71.8709 91.9402 74.3833L80.9554 71.1173L83.0439 82.0442C78.9891 87.2036 76.5708 93.7101 76.5708 100.782C76.5708 114.961 86.2964 126.874 99.4447 130.201C104.323 131.44 109.513 131.44 114.391 130.201C127.54 126.874 137.265 114.961 137.265 100.782C137.265 84.02 123.68 70.4348 106.918 70.4348Z" stroke="black" stroke-width="5.70377" stroke-miterlimit="10" stroke-linecap="round" stroke-linejoin="round"/>
<path d="M99.0985 116.092L99.0957 116.095V116.098L97.909 129.771C100.756 130.654 103.784 131.13 106.919 131.13C110.058 131.13 113.089 130.654 115.935 129.768L114.748 116.098L114.743 116.095C120.252 113.257 124.019 107.516 124.019 100.89C124.019 93.9645 119.898 87.9965 113.978 85.3113L112.814 84.8525V100.89H100.923V84.8438L99.6535 85.4073C93.8441 88.1406 89.8191 94.0466 89.8191 100.89C89.8191 107.516 93.592 113.254 99.0985 116.092Z" stroke="black" stroke-width="5.70377" stroke-miterlimit="10" stroke-linecap="round" stroke-linejoin="round"/>
<path d="M34.0914 8.86963H11.3113C11.3113 18.1457 18.8311 25.6655 28.1072 25.6655H67.9235V42.4614H94.0439V22.6058L80.3078 8.86963H58.3171" stroke="black" stroke-width="5.70377" stroke-miterlimit="10" stroke-linecap="round" stroke-linejoin="round"/>
<path d="M99.386 42.4622V71.3768C96.7487 72.0492 94.249 73.0688 91.9398 74.3835L80.9547 71.1179L83.0438 82.045C78.9898 87.2039 76.5702 93.7106 76.5702 100.782C76.5702 105.498 77.645 109.959 79.5629 113.939H61.5256V95.9348L26.5617 70.4455V83.1666H2.73438V65.5373C2.73438 61.0893 4.50078 56.8258 7.64531 53.6816C10.7898 50.5343 15.0557 48.7679 19.5037 48.7679H34.449C36.9239 48.7679 39.3682 49.3164 41.606 50.3746L61.5256 64.0465V42.4622H99.386Z" stroke="black" stroke-width="5.70377" stroke-miterlimit="10" stroke-linecap="round" stroke-linejoin="round"/>
<path d="M13.9648 93.6709L7.89036 104.754C7.32243 105.79 7.02466 106.953 7.02466 108.135V108.208C7.02466 112.093 10.1738 115.242 14.0586 115.242H14.1988C18.0836 115.242 21.2327 112.093 21.2327 108.208C21.2327 106.98 20.9109 105.773 20.2992 104.707L13.9648 93.6709Z" stroke="black" stroke-width="5.70377" stroke-miterlimit="10" stroke-linecap="round" stroke-linejoin="round"/>
<circle cx="46.4622" cy="8.86963" r="2.73437" fill="black"/>
</g>
<defs>
<clipPath id="clip0_89_923">
<rect width="140" height="140" fill="white"/>
</clipPath>
</defs>
</svg>
