<svg width="54" height="54" viewBox="0 0 54 54" fill="none" xmlns="http://www.w3.org/2000/svg">
<g clip-path="url(#clip0_145_2160)">
<path d="M41.2396 27.1675C39.1384 27.1675 37.167 27.7214 35.4624 28.6904L31.2254 27.4307L32.0309 31.6454C30.4669 33.6355 29.5342 36.1451 29.5342 38.8729C29.5342 44.342 33.2855 48.937 38.357 50.2203C40.2386 50.6982 42.2404 50.6981 44.1221 50.2203C49.1937 48.937 52.945 44.3419 52.945 38.8729C52.945 32.4075 47.705 27.1675 41.2396 27.1675Z" stroke="#2C8DFF" stroke-width="2.20003" stroke-miterlimit="10" stroke-linecap="round" stroke-linejoin="round"/>
<path d="M38.2237 44.7782L38.2227 44.7792V44.7803L37.7649 50.054C38.863 50.3949 40.0309 50.5784 41.2403 50.5784C42.4509 50.5784 43.6199 50.3949 44.718 50.0529L44.2601 44.7803L44.2579 44.7792C46.3829 43.6845 47.836 41.4699 47.836 38.9144C47.836 36.2431 46.2464 33.9412 43.9629 32.9054L43.5138 32.7285V38.9144H38.9273V32.7251L38.4378 32.9425C36.197 33.9967 34.6445 36.2748 34.6445 38.9143C34.6445 41.4699 36.0998 43.6835 38.2237 44.7782Z" stroke="#2C8DFF" stroke-width="2.20003" stroke-miterlimit="10" stroke-linecap="round" stroke-linejoin="round"/>
<path d="M13.1499 3.4209H4.36328C4.36328 6.99882 7.26378 9.89932 10.8417 9.89932H26.1994V16.3777H36.2744V8.71912L30.9762 3.4209H22.4941" stroke="#2C8DFF" stroke-width="2.20003" stroke-miterlimit="10" stroke-linecap="round" stroke-linejoin="round"/>
<path d="M38.3346 16.3779V27.5307C37.3174 27.7901 36.3532 28.1834 35.4625 28.6905L31.2254 27.4308L32.0312 31.6456C30.4675 33.6355 29.5342 36.1452 29.5342 38.8728C29.5342 40.6916 29.9488 42.4126 30.6886 43.9476H23.7313V37.0031L10.2452 27.1715V32.0782H1.05469V25.2783C1.05469 23.5627 1.73602 21.9182 2.94891 20.7054C4.1618 19.4915 5.80721 18.8101 7.52287 18.8101H13.2875C14.2421 18.8101 15.1849 19.0217 16.048 19.4299L23.7313 24.7033V16.3779H38.3346Z" stroke="#2C8DFF" stroke-width="2.20003" stroke-miterlimit="10" stroke-linecap="round" stroke-linejoin="round"/>
<path d="M5.38686 36.1299L3.04388 40.4047C2.82482 40.8045 2.70996 41.2529 2.70996 41.7088V41.7372C2.70996 43.2356 3.92464 44.4503 5.42304 44.4503H5.47714C6.97554 44.4503 8.19022 43.2356 8.19022 41.7372C8.19022 41.2634 8.06609 40.7977 7.83015 40.3867L5.38686 36.1299Z" stroke="#2C8DFF" stroke-width="2.20003" stroke-miterlimit="10" stroke-linecap="round" stroke-linejoin="round"/>
<circle cx="17.9209" cy="3.4209" r="1.05469" fill="#2C8DFF"/>
</g>
<defs>
<clipPath id="clip0_145_2160">
<rect width="54" height="54" fill="white"/>
</clipPath>
</defs>
</svg>
