<svg width="60" height="60" viewBox="0 0 60 60" fill="none" xmlns="http://www.w3.org/2000/svg">
<path d="M19.1484 10.2108C21.9636 10.2108 24.2538 7.9202 24.2538 5.10542C24.2538 2.29018 21.9636 0 19.1484 0C16.3336 0 14.043 2.29018 14.043 5.10542C14.043 7.9202 16.3336 10.2108 19.1484 10.2108ZM19.1484 2.35519C20.665 2.35519 21.8986 3.58885 21.8986 5.10542C21.8986 6.62153 20.665 7.85519 19.1484 7.85519C17.6323 7.85519 16.3986 6.62153 16.3986 5.10542C16.3986 3.58885 17.6323 2.35519 19.1484 2.35519Z" fill="#5BBB47"/>
<path d="M33.1162 0C30.3009 0 28.0107 2.29018 28.0107 5.10542C28.0107 7.9202 30.3009 10.2108 33.1162 10.2108C35.9314 10.2108 38.2216 7.9202 38.2216 5.10542C38.2216 2.29018 35.9309 0 33.1162 0ZM33.1162 7.85519C31.5996 7.85519 30.3659 6.62153 30.3659 5.10542C30.3659 3.58885 31.5996 2.35519 33.1162 2.35519C34.6323 2.35519 35.8659 3.58885 35.8659 5.10542C35.8659 6.62153 34.6323 7.85519 33.1162 7.85519Z" fill="#5BBB47"/>
<path d="M47.0839 10.2108C49.8992 10.2108 52.1894 7.9202 52.1894 5.10542C52.1894 2.29018 49.8992 0 47.0839 0C44.2687 0 41.9785 2.29018 41.9785 5.10542C41.9785 7.9202 44.2687 10.2108 47.0839 10.2108ZM47.0839 2.35519C48.6 2.35519 49.8342 3.58885 49.8342 5.10542C49.8342 6.62153 48.6 7.85519 47.0839 7.85519C45.5674 7.85519 44.3337 6.62153 44.3337 5.10542C44.3337 3.58885 45.5674 2.35519 47.0839 2.35519Z" fill="#5BBB47"/>
<path d="M33.1162 12.144C30.3009 12.144 28.0107 14.4342 28.0107 17.2495C28.0107 20.0647 30.3009 22.3549 33.1162 22.3549C35.9314 22.3549 38.2216 20.0647 38.2216 17.2495C38.2216 14.4342 35.9309 12.144 33.1162 12.144ZM33.1162 19.9997C31.5996 19.9997 30.3659 18.766 30.3659 17.2495C30.3659 15.7334 31.5996 14.4997 33.1162 14.4997C34.6323 14.4997 35.8659 15.7334 35.8659 17.2495C35.8659 18.766 34.6323 19.9997 33.1162 19.9997Z" fill="#5BBB47"/>
<path d="M47.0839 12.144C44.2687 12.144 41.9785 14.4342 41.9785 17.2495C41.9785 20.0647 44.2687 22.3549 47.0839 22.3549C49.8992 22.3549 52.1894 20.0647 52.1894 17.2495C52.1894 14.4342 49.8992 12.144 47.0839 12.144ZM47.0839 19.9997C45.5674 19.9997 44.3337 18.766 44.3337 17.2495C44.3337 15.7334 45.5674 14.4997 47.0839 14.4997C48.6 14.4997 49.8342 15.7334 49.8342 17.2495C49.8342 18.766 48.6 19.9997 47.0839 19.9997Z" fill="#5BBB47"/>
<path d="M47.0839 24.2876C44.2687 24.2876 41.9785 26.5782 41.9785 29.393C41.9785 32.2083 44.2687 34.4984 47.0839 34.4984C49.8992 34.4984 52.1894 32.2083 52.1894 29.393C52.1894 26.5782 49.8992 24.2876 47.0839 24.2876ZM47.0839 32.1432C45.5674 32.1432 44.3337 30.9096 44.3337 29.393C44.3337 27.8765 45.5674 26.6432 47.0839 26.6432C48.6 26.6432 49.8342 27.8765 49.8342 29.393C49.8342 30.9096 48.6 32.1432 47.0839 32.1432Z" fill="#5BBB47"/>
<path d="M35.6733 47.8396L36.121 47.2221C36.847 46.2209 37.2965 45.3242 37.2965 43.9509C37.2965 43.3004 36.7692 42.7731 36.1192 42.7731C35.4687 42.7731 34.9413 43.3004 34.9413 43.9509C34.9413 44.638 34.7784 45.0614 34.2144 45.8396L33.7663 46.4571C33.2403 47.1831 32.962 48.0405 32.962 48.9373V52.0949H18.2536V49.5804C18.2536 48.2136 17.7212 46.9286 16.7549 45.9623L14.6034 43.8108C13.7882 42.9955 13.3391 41.9116 13.3391 40.7589V39.5564C13.3391 37.3619 12.9161 35.22 12.0812 33.1907L10.1439 28.4795C10.0546 28.2629 10.0762 28.0157 10.2016 27.8184C10.3742 27.5456 10.7102 27.4202 11.0192 27.5127C12.0285 27.8157 12.8584 28.4932 13.3574 29.4211L13.7859 30.2185C14.408 31.3766 14.8465 32.6195 15.0887 33.9117L15.3043 35.0607C15.416 35.6585 15.9653 36.0733 16.5704 36.0165C17.1761 35.9602 17.6393 35.4521 17.6393 34.8437V15.663C17.6393 15.3435 17.7583 15.0382 17.9748 14.8029L17.9904 14.7855C18.2202 14.5356 18.5342 14.3895 18.8739 14.3758C19.2149 14.3616 19.5381 14.4806 19.7885 14.7109C20.049 14.9508 20.1982 15.2918 20.1982 15.6461V30.8168C20.1982 31.4673 20.7255 31.9946 21.376 31.9946C22.0265 31.9946 22.5538 31.4673 22.5538 30.8168V23.6647C22.5538 23.3603 22.6889 23.0751 22.9251 22.8824C23.468 22.4393 24.2453 22.4846 24.7337 22.9872C24.9781 23.2385 25.1127 23.5704 25.1127 23.9211V31.4993C25.1127 32.1498 25.6401 32.6771 26.2905 32.6771C26.9406 32.6771 27.4679 32.1498 27.4679 31.4993V26.8562C27.4679 26.404 27.5759 25.9952 27.7888 25.64C27.9527 25.3662 28.2127 25.174 28.5208 25.0989C28.8137 25.0275 29.1136 25.0737 29.3635 25.2275L29.4491 25.2811C29.7682 25.4807 29.9586 25.824 29.9586 26.2003V32.7279C29.9586 33.3784 30.4859 33.9058 31.1364 33.9058C31.7869 33.9058 32.3142 33.3784 32.3142 32.7279V30.6392C32.3142 30.2098 32.4438 29.7964 32.6887 29.4435C32.9771 29.0283 33.4596 28.8145 33.9182 28.8997C34.1421 28.9409 34.3513 29.0434 34.5225 29.1963C34.7889 29.4339 34.9413 29.7745 34.9413 30.1311V34.6689C34.9413 35.3193 35.4687 35.8467 36.1192 35.8467C36.7692 35.8467 37.2965 35.3193 37.2965 34.6689V30.1311C37.2965 29.1038 36.8571 28.1224 36.0903 27.4385C35.5968 26.9986 34.994 26.7029 34.3462 26.5834C33.6518 26.4552 32.9469 26.5459 32.3142 26.8196V26.2007C32.3142 25.0069 31.7095 23.9165 30.6974 23.2839L30.6004 23.2234C29.808 22.7355 28.8714 22.589 27.9623 22.811C27.7526 22.8618 27.5503 22.9314 27.3567 23.017C27.2006 22.3931 26.882 21.8181 26.4233 21.3457C25.3865 20.2787 23.8763 19.9596 22.5538 20.4274V15.6461C22.5538 14.6354 22.1272 13.6631 21.3838 12.9783C20.6701 12.3214 19.7441 11.9808 18.7755 12.0225C17.8068 12.0627 16.9119 12.4779 16.2559 13.192L16.2404 13.2094C15.6233 13.8805 15.2837 14.7521 15.2837 15.6635V28.046C14.4762 26.6969 13.2123 25.7118 11.6957 25.2568C10.3801 24.8618 8.94687 25.3969 8.2117 26.5582C7.67795 27.4001 7.58594 28.4534 7.96542 29.3753L9.90313 34.0866C10.62 35.8307 10.9839 37.6709 10.9839 39.5564V40.7589C10.9839 42.5405 11.6779 44.2159 12.9376 45.4762L15.0896 47.6281C15.611 48.1495 15.8984 48.843 15.8984 49.5804V52.1274H15.22C14.9074 52.1279 14.6075 52.2519 14.3869 52.4735C14.1658 52.6946 14.0422 52.9944 14.0427 53.3071L14.0514 58.824C14.0523 59.4736 14.5792 60 15.2292 60H15.2296L35.6696 59.9941C35.9823 59.9936 36.2821 59.8696 36.5028 59.648C36.7239 59.4269 36.8475 59.1271 36.847 58.8144L36.8383 53.2975C36.8374 52.6479 36.3105 52.1215 35.6605 52.1215L35.3172 52.1219V48.9377C35.3176 48.5404 35.4408 48.1609 35.6733 47.8396ZM16.4052 57.6439L16.4001 54.4826L34.4849 54.4771L34.49 57.6389L16.4052 57.6439Z" fill="#5BBB47"/>
<path d="M10.2737 11.3742L12.0873 12.4211C12.2727 12.5282 12.4751 12.579 12.6746 12.579C13.0821 12.579 13.4776 12.368 13.6959 11.9903C14.0214 11.4268 13.8282 10.7068 13.2647 10.3813L11.451 9.33439C10.888 9.00892 10.1679 9.2021 9.84247 9.76514C9.51746 10.3286 9.71018 11.0487 10.2737 11.3742Z" fill="#5BBB47"/>
<path d="M10.2078 17.5366C10.2852 17.5366 10.3635 17.5288 10.4422 17.5132L12.4948 17.0989C13.1325 16.9703 13.5454 16.3496 13.4167 15.7119C13.2881 15.0743 12.6669 14.6623 12.0293 14.7905L9.97666 15.2043C9.339 15.3329 8.92609 15.9541 9.05473 16.5913C9.16734 17.1502 9.65897 17.5366 10.2078 17.5366Z" fill="#5BBB47"/>
<path d="M37.2063 38.8364C36.9628 38.2335 36.2762 37.9424 35.6733 38.1864C35.07 38.4299 34.7788 39.1161 35.0228 39.7194L35.0338 39.7464C35.2187 40.2047 35.66 40.483 36.1256 40.483C36.273 40.483 36.4222 40.4551 36.5668 40.3969C37.1697 40.1529 37.4608 39.4667 37.2173 38.8634L37.2063 38.8364Z" fill="#5BBB47"/>
</svg>
