<svg width="60" height="60" viewBox="0 0 60 60" fill="none" xmlns="http://www.w3.org/2000/svg">
<path d="M53.3782 21.9592C53.5828 21.7553 53.7002 21.4714 53.7002 21.1826C53.7002 20.8939 53.5828 20.61 53.3782 20.406C53.1742 20.2014 52.8903 20.084 52.6016 20.084C52.3128 20.084 52.0289 20.2014 51.825 20.406C51.6203 20.61 51.5029 20.8925 51.5029 21.1826C51.5029 21.4714 51.6203 21.7553 51.825 21.9592C52.0289 22.1638 52.3128 22.2813 52.6016 22.2813C52.8903 22.2813 53.1742 22.1638 53.3782 21.9592Z" fill="#5BBB47"/>
<path d="M54.8008 7.7793H51.0376V5.58203C51.0376 3.52244 49.3619 1.84668 47.3023 1.84668C45.2423 1.84668 43.5669 3.52244 43.5669 5.58203V7.7793H33.693V5.58203C33.693 3.52244 32.0175 1.84668 29.9576 1.84668C27.898 1.84668 26.2223 3.52244 26.2223 5.58203V7.7793H16.3486V5.58203C16.3486 3.52244 14.6729 1.84668 12.6133 1.84668C10.5537 1.84668 8.87793 3.52244 8.87793 5.58203V7.7793H5.14258C3.32503 7.7793 1.84668 9.25765 1.84668 11.0752V54.8008C1.84668 56.6183 3.32503 58.0967 5.14258 58.0967H18.1428C18.7498 58.0967 19.2415 57.605 19.2415 56.9981C19.2415 56.3911 18.7498 55.8994 18.1428 55.8994H5.14258C4.53661 55.8994 4.04395 55.4067 4.04395 54.8008V22.2813H48.209C48.816 22.2813 49.3076 21.7896 49.3076 21.1826C49.3076 20.5756 48.816 20.084 48.209 20.084H4.04395V11.0752C4.04395 10.4692 4.53661 9.97656 5.14258 9.97656H8.87793V12.6318C8.87793 14.6911 10.5537 16.3672 12.6133 16.3672C14.6729 16.3672 16.3486 14.6911 16.3486 12.6318V9.97656H26.2223V12.6318C26.2223 14.6911 27.898 16.3672 29.9576 16.3672C32.0175 16.3672 33.693 14.6911 33.693 12.6318V9.97656H43.5669V12.6318C43.5669 14.6911 45.2423 16.3672 47.3023 16.3672C49.3619 16.3672 51.0376 14.6911 51.0376 12.6318V9.97656H54.8008C55.4067 9.97656 55.8994 10.4692 55.8994 11.0752V54.8008C55.8994 55.4067 55.4067 55.8994 54.8008 55.8994H26.9319C26.3256 55.8994 25.8333 56.3911 25.8333 56.9981C25.8333 57.605 26.3256 58.0967 26.9319 58.0967H54.8008C56.6183 58.0967 58.0967 56.6183 58.0967 54.8008V11.0752C58.0967 9.25765 56.6183 7.7793 54.8008 7.7793ZM14.1514 12.6318C14.1514 13.4798 13.4613 14.1699 12.6133 14.1699C11.7653 14.1699 11.0752 13.4798 11.0752 12.6318V5.58203C11.0752 4.73402 11.7653 4.04395 12.6133 4.04395C13.4613 4.04395 14.1514 4.73402 14.1514 5.58203V12.6318ZM31.4957 12.6318C31.4957 13.4798 30.806 14.1699 29.9576 14.1699C29.1096 14.1699 28.4195 13.4798 28.4195 12.6318V5.58203C28.4195 4.73402 29.1096 4.04395 29.9576 4.04395C30.806 4.04395 31.4957 4.73402 31.4957 5.58203V12.6318ZM48.8404 12.6318C48.8404 13.4798 48.1503 14.1699 47.3023 14.1699C46.4543 14.1699 45.7642 13.4798 45.7642 12.6318V5.58203C45.7642 4.73402 46.4543 4.04395 47.3023 4.04395C48.1503 4.04395 48.8404 4.73402 48.8404 5.58203V12.6318Z" fill="#5BBB47"/>
<path d="M12.1001 25.181C9.55507 25.9088 7.77734 28.2678 7.77734 30.9172C7.77734 34.2073 10.4539 36.8838 13.7439 36.8838C16.6334 36.8838 19.1029 34.8228 19.6151 31.9832C19.7229 31.3862 19.3264 30.8149 18.7293 30.7071C18.1326 30.5993 17.5607 30.9958 17.4529 31.5929C17.1291 33.3853 15.5694 34.6865 13.7439 34.6865C11.6655 34.6865 9.97461 32.9957 9.97461 30.9172C9.97461 29.2432 11.0973 27.7528 12.7044 27.2931C13.288 27.1262 13.6255 26.5179 13.4586 25.9349C13.2915 25.3516 12.6834 25.0138 12.1001 25.181Z" fill="#5BBB47"/>
<path d="M46.1961 24.9492C42.9064 24.9492 40.2295 27.6258 40.2295 30.9158C40.2295 34.2055 42.9064 36.8821 46.1961 36.8821C49.4862 36.8821 52.1627 34.2055 52.1627 30.9151C52.1627 27.6254 49.4862 24.9492 46.1961 24.9492ZM46.1961 34.6845C44.118 34.6845 42.4268 32.9936 42.4268 30.9151C42.4268 28.8373 44.118 27.1465 46.1961 27.1465C48.2746 27.1465 49.9654 28.8373 49.9654 30.9151C49.9654 32.9936 48.2746 34.6845 46.1961 34.6845Z" fill="#5BBB47"/>
<path d="M29.9705 36.8817C33.2602 36.8817 35.9371 34.2055 35.9371 30.9151C35.9371 27.6254 33.2602 24.9492 29.9705 24.9492C26.6808 24.9492 24.0039 27.6258 24.0039 30.9158C24.0039 34.2055 26.6808 36.8817 29.9705 36.8817ZM29.9705 27.1465C32.049 27.1465 33.7399 28.8373 33.7399 30.9158C33.7399 32.9936 32.049 34.6848 29.9705 34.6848C27.892 34.6848 26.2012 32.9936 26.2012 30.9158C26.2012 28.8373 27.892 27.1465 29.9705 27.1465Z" fill="#5BBB47"/>
<path d="M13.7439 52.1622C17.0337 52.1622 19.7106 49.4857 19.7106 46.1956C19.7106 42.9059 17.0337 40.229 13.7439 40.229C10.4539 40.229 7.77734 42.9059 7.77734 46.1956C7.77734 49.4857 10.4539 52.1622 13.7439 52.1622ZM13.7439 42.427C15.8221 42.427 17.5133 44.1178 17.5133 46.1956C17.5133 48.2741 15.8221 49.9649 13.7439 49.9649C11.6655 49.9649 9.97461 48.2741 9.97461 46.1956C9.97461 44.1175 11.6655 42.427 13.7439 42.427Z" fill="#5BBB47"/>
<path d="M46.1961 52.1622C49.4862 52.1622 52.1627 49.4857 52.1627 46.1956C52.1627 42.9059 49.4862 40.229 46.1961 40.229C42.9064 40.229 40.2295 42.9059 40.2295 46.1956C40.2295 49.4857 42.9064 52.1622 46.1961 52.1622ZM46.1961 42.427C48.2746 42.427 49.9654 44.1178 49.9654 46.1956C49.9654 48.2741 48.2746 49.9649 46.1961 49.9649C44.118 49.9649 42.4268 48.2741 42.4268 46.1956C42.4268 44.1175 44.118 42.427 46.1961 42.427Z" fill="#5BBB47"/>
<path d="M35.9371 46.1956C35.9371 42.9059 33.2602 40.229 29.9705 40.229C26.6808 40.229 24.0039 42.9059 24.0039 46.1956C24.0039 49.4857 26.6808 52.1622 29.9705 52.1622C33.2602 52.1622 35.9371 49.4857 35.9371 46.1956ZM26.2012 46.1956C26.2012 44.1175 27.892 42.4263 29.9705 42.4263C32.049 42.4263 33.7399 44.1175 33.7399 46.1956C33.7399 48.2741 32.049 49.9649 29.9705 49.9649C27.892 49.9649 26.2012 48.2741 26.2012 46.1956Z" fill="#5BBB47"/>
<path d="M22.5361 55.8979C22.2474 55.8979 21.9642 56.0154 21.7599 56.22C21.5553 56.4239 21.4375 56.7078 21.4375 56.9966C21.4375 57.2853 21.5553 57.5692 21.7599 57.7732C21.9642 57.9778 22.2474 58.0952 22.5361 58.0952C22.8256 58.0952 23.1085 57.9778 23.3131 57.7732C23.5184 57.5692 23.6348 57.2853 23.6348 56.9966C23.6348 56.7078 23.5184 56.4239 23.3131 56.22C23.1085 56.0154 22.8256 55.8979 22.5361 55.8979Z" fill="#5BBB47"/>
<path d="M11.7984 29.411C11.3693 29.8401 11.3693 30.5357 11.7984 30.9645L13.01 32.1761C13.2246 32.39 13.5058 32.4978 13.787 32.4978C14.0678 32.4978 14.349 32.39 14.5635 32.1761L19.2139 27.5258C19.6427 27.097 19.6427 26.4014 19.2139 25.9723C18.7847 25.5431 18.0891 25.5431 17.66 25.9723L13.787 29.8453L13.3523 29.411C12.9235 28.9818 12.2276 28.9818 11.7984 29.411Z" fill="#5BBB47"/>
</svg>
