<svg width="60" height="60" viewBox="0 0 60 60" fill="none" xmlns="http://www.w3.org/2000/svg">
<path d="M31.3897 37.8379V26.6295C31.3888 26.2974 31.456 25.9816 31.5774 25.6939C31.9408 24.8334 32.7926 24.2279 33.7859 24.2275C35.1118 24.2255 36.1868 25.2984 36.1879 26.6239V40.2072" stroke="#5BBB47" stroke-width="1.875" stroke-miterlimit="10" stroke-linecap="round" stroke-linejoin="round"/>
<path d="M26.5918 37.8802V34.1579C26.591 33.8257 26.6581 33.5099 26.7795 33.2222C27.1429 32.3617 27.9948 31.7562 28.9881 31.7559C30.3139 31.7539 31.389 32.8267 31.39 34.1522V37.8372" stroke="#5BBB47" stroke-width="1.875" stroke-miterlimit="10" stroke-linecap="round" stroke-linejoin="round"/>
<path d="M21.793 37.7939V34.1579C21.7922 33.8257 21.8593 33.5099 21.9807 33.2222C22.3441 32.3617 23.1959 31.7562 24.1892 31.7559C25.5151 31.7539 26.5902 32.8267 26.5912 34.1522V37.8803" stroke="#5BBB47" stroke-width="1.875" stroke-miterlimit="10" stroke-linecap="round" stroke-linejoin="round"/>
<path d="M35.3701 53.0464C39.3503 49.909 41.2948 45.8329 41.2714 40.5813V40.5317C41.2714 37.8636 39.1085 35.7007 36.4404 35.7007" stroke="#5BBB47" stroke-width="1.875" stroke-miterlimit="10" stroke-linecap="round" stroke-linejoin="round"/>
<path d="M21.7943 37.7944V35.8798C21.7932 34.5544 20.7181 33.4814 19.3924 33.4834C18.399 33.4838 17.5471 34.0893 17.1838 34.9498C17.0623 35.2375 16.9953 35.5534 16.9961 35.8854L17.0008 43.8438C17.0008 50.9046 21.7765 53.0463 21.7765 53.0463" stroke="#5BBB47" stroke-width="1.875" stroke-miterlimit="10" stroke-linecap="round" stroke-linejoin="round"/>
<path d="M9.75504 20.6395C12.0619 20.6395 13.932 18.7694 13.932 16.4626C13.932 14.1557 12.0619 12.2856 9.75504 12.2856C7.44819 12.2856 5.57812 14.1557 5.57812 16.4626C5.57812 18.7694 7.44819 20.6395 9.75504 20.6395Z" stroke="#5BBB47" stroke-width="1.875" stroke-miterlimit="10" stroke-linecap="round" stroke-linejoin="round"/>
<path d="M14.997 29.9031H4.51172C3.86449 29.9031 3.33984 29.3785 3.33984 28.7312V25.0054C3.33984 22.5946 5.29418 20.6401 7.70508 20.6401H11.8037C14.2145 20.6401 16.1689 22.5945 16.1689 25.0054V28.7312C16.1688 29.3785 15.6442 29.9031 14.997 29.9031Z" stroke="#5BBB47" stroke-width="1.875" stroke-miterlimit="10" stroke-linecap="round" stroke-linejoin="round"/>
<path d="M50.2453 20.6395C52.5521 20.6395 54.4222 18.7694 54.4222 16.4626C54.4222 14.1557 52.5521 12.2856 50.2453 12.2856C47.9384 12.2856 46.0684 14.1557 46.0684 16.4626C46.0684 18.7694 47.9384 20.6395 50.2453 20.6395Z" stroke="#5BBB47" stroke-width="1.875" stroke-miterlimit="10" stroke-linecap="round" stroke-linejoin="round"/>
<path d="M55.4872 29.9031H45.002C44.3547 29.9031 43.8301 29.3785 43.8301 28.7312V25.0054C43.8301 22.5946 45.7844 20.6401 48.1953 20.6401H52.2939C54.7047 20.6401 56.6592 22.5945 56.6592 25.0054V28.7312C56.6591 29.3785 56.1344 29.9031 55.4872 29.9031Z" stroke="#5BBB47" stroke-width="1.875" stroke-miterlimit="10" stroke-linecap="round" stroke-linejoin="round"/>
<path d="M30.0002 9.5257C32.307 9.5257 34.1771 7.65563 34.1771 5.34879C34.1771 3.04194 32.307 1.17188 30.0002 1.17188C27.6933 1.17188 25.8232 3.04194 25.8232 5.34879C25.8232 7.65563 27.6933 9.5257 30.0002 9.5257Z" stroke="#5BBB47" stroke-width="1.875" stroke-miterlimit="10" stroke-linecap="round" stroke-linejoin="round"/>
<path d="M35.2421 18.7893H24.7568C24.1096 18.7893 23.585 18.2647 23.585 17.6175V13.8916C23.585 11.4808 25.5393 9.52637 27.9502 9.52637H32.0488C34.4596 9.52637 36.4141 11.4807 36.4141 13.8916V17.6175C36.4139 18.2647 35.8893 18.7893 35.2421 18.7893Z" stroke="#5BBB47" stroke-width="1.875" stroke-miterlimit="10" stroke-linecap="round" stroke-linejoin="round"/>
<path d="M33.672 58.8294H35.5351C36.1849 58.8294 36.7117 58.3027 36.7117 57.6529V54.2249C36.7117 53.5751 36.1849 53.0483 35.5351 53.0483H21.1307C20.4809 53.0483 19.9541 53.5751 19.9541 54.2249V57.6529C19.9541 58.3027 20.4809 58.8294 21.1307 58.8294H22.9938" stroke="#5BBB47" stroke-width="1.875" stroke-miterlimit="10" stroke-linecap="round" stroke-linejoin="round"/>
<circle cx="28.3232" cy="58.8281" r="1.17188" fill="#5BBB47"/>
</svg>
